<svg width="510" height="720" xmlns="http://www.w3.org/2000/svg" xmlns:xlink="http://www.w3.org/1999/xlink" xml:space="preserve" overflow="hidden"><g transform="translate(-385 0)"><path d="M-107.98 888.398C-88.5362 931.533-94.4754 976.267-121.244 988.343-148.014 1000.42-185.476 975.25-204.919 932.123-224.363 888.997-218.424 844.258-191.655 832.185-164.885 820.115-127.424 845.284-107.98 888.398Z" fill="#60435F" fill-rule="evenodd" transform="matrix(1.00184 0 0 1 616.163 -556.383)"/><path d="M156.63 888.398C137.185 931.533 143.124 976.267 169.895 988.343 196.665 1000.42 234.124 975.25 253.57 932.123 273.012 888.997 267.073 844.258 240.304 832.185 213.536 820.115 176.074 845.284 156.63 888.398Z" fill="#60435F" fill-rule="evenodd" transform="matrix(1.00184 0 0 1 616.163 -556.383)"/><path d="M5.80287 801.946C15.7698 848.185 0.577072 890.682-28.1293 896.873-56.8336 903.056-88.1839 870.585-98.1493 824.351-108.115 778.113-92.9224 735.614-64.2166 729.429-35.511 723.241-4.16231 755.708 5.80287 801.946Z" fill="#60435F" fill-rule="evenodd" transform="matrix(1.00184 0 0 1 616.163 -556.383)"/><path d="M42.1324 801.985C32.1742 848.223 47.3562 890.724 76.0604 896.907 104.767 903.099 136.116 870.628 146.08 824.391 156.046 778.153 140.856 735.654 112.148 729.468 83.4421 723.282 52.0938 755.747 42.1324 801.985Z" fill="#60435F" fill-rule="evenodd" transform="matrix(1.00184 0 0 1 616.163 -556.383)"/><path d="M-30.1257 956.513C-37.1316 968.614-69.5974 1008.67-92.0527 1022.34-114.506 1036-142.33 1056.01-137.661 1101.96-132.994 1147.92-85.8587 1167.59-54.8289 1165.84-23.7975 1164.11 34.7073 1158.39 76.4772 1164.18 118.245 1169.97 170.962 1165.59 183.308 1121.59 195.653 1077.59 168.043 1049.56 146.497 1033.65 124.953 1017.75 88.9741 970.196 77.8894 948.363 66.8063 926.539 10.3932 886.568-30.1257 956.513Z" fill="#60435F" fill-rule="evenodd" transform="matrix(1.00184 0 0 1 616.163 -556.383)"/></g></svg>